<svg width="164" height="17" viewBox="0 0 164 17" fill="none" xmlns="http://www.w3.org/2000/svg">
<path d="M8.01799 16.1053H4.73748V3.48108H0.536301V0.775905H12.2192V3.48108H8.01799V16.1053ZM27.2778 16.1053H24.0079V9.48913H17.8807V16.1053H14.6002V0.775905H17.8807V6.78392H24.0079V0.775905H27.2778V16.1053ZM40.1035 16.1053H31.1932V0.775905H40.1035V3.43915H34.4737V6.80489H39.712V9.46811H34.4737V13.4211H40.1035V16.1053ZM46.5693 16.1053H43.3417V0.775905H52.2097V3.43915H46.5693V7.39207H51.8181V10.0449H46.5693V16.1053ZM69.279 8.41962C69.279 10.957 68.6441 12.9073 67.3741 14.2703C66.1042 15.6335 64.2841 16.315 61.9136 16.315C59.5432 16.315 57.7231 15.6335 56.4532 14.2703C55.1833 12.9073 54.5484 10.9501 54.5484 8.39864C54.5484 5.84725 55.1833 3.9005 56.4532 2.55839C57.7301 1.20929 59.5573 0.534745 61.9349 0.534745C64.3123 0.534745 66.129 1.21279 67.3847 2.56887C68.6476 3.92496 69.279 5.87521 69.279 8.41962ZM57.9877 8.41962C57.9877 10.1322 58.3156 11.4219 58.9718 12.2887C59.6279 13.1554 60.6085 13.5888 61.9136 13.5888C64.531 13.5888 65.8397 11.8657 65.8397 8.41962C65.8397 4.96649 64.5381 3.23992 61.9349 3.23992C60.6297 3.23992 59.6455 3.67681 58.9823 4.55058C58.3192 5.41735 57.9877 6.70703 57.9877 8.41962ZM84.9936 16.1053H81.2475L77.6495 10.3069L74.0515 16.1053H70.5382L75.6707 8.19942L70.8663 0.775905H74.4854L77.8189 6.29112L81.0888 0.775905H84.6233L79.766 8.37767L84.9936 16.1053ZM99.4491 16.1053H95.7033L92.1048 10.3069L88.5069 16.1053H84.9936L90.1261 8.19942L85.3217 0.775905H88.9408L92.2745 6.29112L95.5444 0.775905H99.0788L94.2215 8.37767L99.4491 16.1053ZM110.529 11.8483C110.529 13.2324 110.024 14.3228 109.016 15.1196C108.013 15.9166 106.617 16.315 104.825 16.315C103.174 16.315 101.714 16.0074 100.444 15.3922V12.3725C101.488 12.8339 102.369 13.1589 103.089 13.3477C103.816 13.5364 104.479 13.6308 105.079 13.6308C105.798 13.6308 106.349 13.4944 106.73 13.2218C107.118 12.9493 107.312 12.5438 107.312 12.0056C107.312 11.7049 107.227 11.4394 107.058 11.2086C106.888 10.971 106.638 10.7438 106.307 10.5271C105.982 10.3104 105.315 9.96442 104.306 9.48913C103.361 9.04874 102.652 8.62582 102.179 8.22039C101.707 7.81497 101.329 7.34313 101.047 6.80489C100.765 6.26666 100.624 5.63754 100.624 4.91755C100.624 3.56147 101.086 2.49548 102.01 1.71958C102.941 0.94367 104.225 0.555716 105.862 0.555716C106.666 0.555716 107.432 0.650082 108.159 0.838816C108.892 1.02755 109.658 1.29317 110.455 1.63569L109.397 4.16262C108.571 3.82709 107.887 3.59292 107.343 3.46012C106.807 3.3273 106.279 3.2609 105.756 3.2609C105.135 3.2609 104.66 3.4042 104.327 3.69079C103.996 3.97738 103.831 4.35136 103.831 4.81271C103.831 5.0993 103.897 5.35095 104.031 5.56764C104.166 5.77734 104.377 5.98355 104.666 6.18626C104.962 6.38199 105.657 6.73849 106.751 7.25576C108.198 7.94079 109.188 8.62932 109.725 9.32137C110.261 10.0064 110.529 10.8487 110.529 11.8483ZM119.301 16.1053H116.021V3.48108H111.82V0.775905H123.503V3.48108H119.301V16.1053ZM138.477 0.775905V10.6949C138.477 11.8273 138.219 12.8199 137.704 13.6727C137.196 14.5255 136.459 15.179 135.492 15.6335C134.526 16.0878 133.383 16.315 132.064 16.315C130.074 16.315 128.529 15.8117 127.428 14.8051C126.328 13.7916 125.778 12.4075 125.778 10.6529V0.775905H129.047V10.1602C129.047 11.3415 129.288 12.2082 129.767 12.7605C130.247 13.3127 131.04 13.5888 132.148 13.5888C133.22 13.5888 133.997 13.3127 134.476 12.7605C134.963 12.2013 135.207 11.3275 135.207 10.1392V0.775905H138.477ZM145.492 16.1053H142.265V0.775905H151.133V3.43915H145.492V7.39207H150.742V10.0449H145.492V16.1053ZM157.387 16.1053H154.16V0.775905H163.027V3.43915H157.387V7.39207H162.636V10.0449H157.387V16.1053Z" fill="white"/>
</svg>
